# xmcd
#
# Track frame offsets:
#	150
#	16510
#	30018
#	43620
#	62923
#	78758
#	93761
#	107157
#	124723
#	141294
#	157046
#	171556
#	188492
#	201566
#	215187
#	232806
#	248781
#	263829
#	279646
#	294197
#	308877
#	324611
#	337654
#
# Disc length: 4728
#
# Revision: 3
# Processed by: cddbd v1.5.1PL0 Copyright (c) Steve Scherf et al.
# Submitted via: ExactAudioCopy v0.95a5
# Normalized: r2:TDELIM( - )
#
DISCID=3c127617
DTITLE=Various Artist - Hit 2004 #6 CD2
DYEAR=2004
DGENRE=Top 40
TTITLE0=Royal Gigolos - California Dreamin
TTITLE1=Dj Boozy Woozy - Life is Music
TTITLE2=Ruslana - Wild Dances
TTITLE3=Mario Winams ft Enay and P. Daddy - I Don't Wann Know
TTITLE4=Milk and Sugar - Let The Sun Shine
TTITLE5=Public Favor - F U Right Back
TTITLE6=Xandee - I Life
TTITLE7=Nick Kamen - I Promised Myself 2004
TTITLE8=Sita ft Co - Dance The Night Away
TTITLE9=Amiel - Lovesong
TTITLE10=Rene Schuurman - Als Ik Haar Zie
TTITLE11=Tina Charles and Blue Chip - I Love To Love
TTITLE12=Drunkenmunky - Yeah!
TTITLE13=Four Non Tops - Life Is A Chance
TTITLE14=Keane - Somewhere Only We Know
TTITLE15=Alanis Morissette - Everything
TTITLE16=Dj Cor Fijneman ft. A Kelsey - Healing
TTITLE17=Sam Sharp vs Ron van Beuken - Twister
TTITLE18=Spoot - Take Control 2004
TTITLE19=Evanescence - Everbody's Fool
TTITLE20=Re - Play
TTITLE21=Flash - You 'Ll Never Walk Alone
TTITLE22=Simon - V'kkevuller
EXTD=
EXTT0=
EXTT1=
EXTT2=
EXTT3=
EXTT4=
EXTT5=
EXTT6=
EXTT7=
EXTT8=
EXTT9=
EXTT10=
EXTT11=
EXTT12=
EXTT13=
EXTT14=
EXTT15=
EXTT16=
EXTT17=
EXTT18=
EXTT19=
EXTT20=
EXTT21=
EXTT22=
PLAYORDER=
